<svg width="180" height="102" viewBox="0 0 180 102" fill="none" xmlns="http://www.w3.org/2000/svg">
<path fill-rule="evenodd" clip-rule="evenodd" d="M44.1223 0.485141C43.6936 1.17923 44.3418 1.78503 45.8729 2.12158C46.6714 2.29669 47.7664 3.002 48.3064 3.68828C49.2468 4.8833 49.2878 5.6403 49.2878 21.7355V38.535L47.9415 39.8807C47.2016 40.6212 46.2841 41.3309 45.9027 41.4582C45.5173 41.5865 45.3359 42.0167 45.4934 42.4274C45.7354 43.0571 47.345 43.1605 56.434 43.1297L67.0911 43.0936L69.6538 41.6738C72.6594 40.0085 74.5153 37.7653 75.4455 34.6744C77.3731 28.2705 75.0158 22.4286 69.5899 20.162C67.7379 19.3884 67.7198 19.3572 68.7285 18.6504C69.2953 18.2538 70.3523 16.9169 71.0771 15.6794C72.1228 13.8952 72.394 12.8158 72.3887 10.4584C72.3804 7.00263 71.5478 5.1184 69.0651 2.93859C66.2365 0.455387 63.4373 -0.0650561 53.2967 0.00615722C48.3927 0.0403006 44.2643 0.255893 44.1223 0.485141ZM55.1409 2.84201C54.5424 3.21954 54.4093 4.66283 54.4093 10.7608V18.2177L58.7957 18.3602C65.8336 18.5894 68.1286 16.9783 68.0066 11.8944C67.9334 8.84344 66.9545 6.82898 64.6035 4.8911C62.0374 2.77567 56.9807 1.68065 55.1409 2.84201ZM129.571 11.054C128.191 13.7772 127.544 14.403 125.866 14.6346C124.937 14.7634 124.647 15.0927 124.647 16.0179C124.647 16.9861 124.944 17.2837 126.11 17.4856L127.574 17.7383L127.818 28.5525C128.043 38.557 128.138 39.47 129.084 40.7426C131.069 43.4146 136.027 43.9297 139.49 41.8235C142.32 40.1022 142.125 38.2243 139.258 39.592C136.65 40.8348 134.428 40.6631 133.219 39.1257C132.269 37.919 132.207 37.221 132.207 27.6633V17.4861H136.294C139.331 17.4861 140.536 17.2983 140.987 16.7545C141.471 16.1706 141.471 15.875 140.987 15.2912C140.536 14.7473 139.331 14.5595 136.294 14.5595H132.207V11.633C132.207 7.92645 131.261 7.71817 129.571 11.054ZM87.9405 15.0439C85.5061 15.6097 83.0741 17.4793 81.2733 20.1688C79.2164 23.2412 78.5584 25.6083 78.5608 29.9241C78.5681 41.8177 90.7305 47.3079 99.6741 39.4554C101.36 37.9746 102.04 36.5088 101.04 36.5088C100.799 36.5088 99.3502 37.1673 97.8201 37.9721C94.4936 39.7222 91.5821 39.8812 88.8053 38.4643C85.6529 36.8561 83.9769 33.9856 83.1785 28.8266L82.8575 26.7536H91.924C101.427 26.7536 101.199 26.8087 101.029 24.5587C100.776 21.2194 97.4748 16.6798 94.5024 15.5838C92.6752 14.9102 89.6018 14.6576 87.9405 15.0439ZM108.927 16.493C106.255 17.7061 104.897 19.9132 104.895 23.049C104.893 25.1932 105.088 25.6278 106.779 27.236C107.895 28.2978 110.239 29.665 112.517 30.583C117.683 32.6658 119.336 33.7349 119.713 35.2387C120.201 37.1829 118.933 39.63 116.951 40.5709C112.683 42.5961 108.063 40.3095 106.632 35.4636C106.178 33.9261 105.749 33.3384 105.083 33.3384C104.256 33.3384 104.161 33.7393 104.161 37.2385V41.1387L107.088 42.2088C110.825 43.576 115.585 43.6658 118.326 42.4205C123.809 39.9305 125.485 32.9365 121.493 29.2075C120.749 28.5125 118.061 27.1209 115.52 26.1151C110.006 23.9329 108.795 22.9486 108.795 20.6488C108.795 18.5319 110.426 17.3466 113.339 17.3466C116.434 17.3466 118.857 18.8084 120.238 21.5072C121.122 23.2359 121.72 22.4549 121.72 19.5737C121.72 17.0871 121.588 16.7159 120.501 16.1662C118.542 15.1751 111.385 15.377 108.927 16.493ZM86.9952 17.7217C85.3705 18.4202 83.4311 21.4662 83.4311 23.3197C83.4311 24.2606 83.7218 24.3148 88.7565 24.3148C94.7594 24.3148 95.6252 24.1207 95.6252 22.7749C95.6252 19.0508 90.6637 16.1457 86.9952 17.7217ZM55.019 21.398C54.2659 21.8623 54.1654 22.8081 54.1654 29.4377C54.1654 37.9682 54.4795 39.1418 56.9866 39.969C59.4142 40.7699 65.3883 40.2958 67.3515 39.1462C70.2552 37.4458 70.9932 35.9245 70.9932 31.6376C70.9932 28.1735 70.8547 27.6164 69.5255 25.7249C67.5008 22.8442 64.6435 21.5043 59.7746 21.1526C57.3353 20.9765 55.5526 21.0687 55.019 21.398ZM1.48555 44.2316C0.410037 44.5916 1.10022 45.7339 2.71471 46.267C5.8759 47.3099 5.93102 47.6713 5.77347 66.3302L5.633 82.959L3.75414 84.5822C2.72057 85.4753 1.96015 86.4606 2.06355 86.7713C2.36255 87.6683 25.0981 87.4108 26.8775 86.4904C29.4621 85.1539 31.8273 80.6889 31.0386 78.634C30.7489 77.8789 30.4806 78.0072 29.0217 79.5997C26.3571 82.5083 22.6569 83.9374 17.0969 84.2052C13.1402 84.3954 12.2797 84.3018 11.5818 83.6038C10.836 82.858 10.7545 81.1138 10.7545 65.8483C10.7545 47.4396 10.7779 47.2752 13.5221 46.2319C14.2474 45.9558 14.6649 45.4608 14.5703 44.9886C14.4361 44.3204 13.4855 44.1931 8.19229 44.136C4.77063 44.0994 1.75285 44.1423 1.48555 44.2316ZM58.4333 58.8415C53.3298 58.9913 52.4948 59.522 54.8907 61.0921C56.6325 62.233 57.4812 64.243 61.2706 76.1991C63.1305 82.0668 64.9415 86.9796 65.2947 87.1167C66.3058 87.5088 66.6887 86.8689 70.0611 79.1447C71.8078 75.1445 73.4266 71.6819 73.6593 71.4492C73.8983 71.2102 75.1797 74.4329 76.6025 78.8505C78.0058 83.2092 79.4281 86.7923 79.8124 86.9401C80.8426 87.3352 81.4835 86.0484 86.1002 74.3153C88.4214 68.4158 90.6705 63.2031 91.0973 62.731C92.006 61.7267 93.6278 61.6184 94.8087 62.4822C95.2667 62.8178 97.5509 67.9208 99.8839 73.8227C104.834 86.344 105.039 87.6917 102.698 92.3308C101.329 95.0433 101.065 95.2842 98.6103 96.0627C94.996 97.2094 94.1209 98.9015 96.113 100.894C98.085 102.866 101.552 101.614 103.258 98.3142C103.69 97.4797 106.651 89.1038 109.838 79.7007C114.922 64.704 115.819 62.4446 117.146 61.3038C117.978 60.5887 118.512 59.7659 118.332 59.4747C118.134 59.1552 116.182 58.9459 113.4 58.9459C109.563 58.9459 108.795 59.0723 108.795 59.7029C108.795 60.1195 109.433 60.6824 110.213 60.9545C112.845 61.872 112.655 64.5362 109.316 73.5788C108.176 76.6639 107.195 79.2383 107.135 79.2998C107.075 79.3612 105.512 75.6747 103.66 71.1068C100.116 62.3647 99.9868 61.3413 102.382 60.9848C102.958 60.8994 103.429 60.6248 103.429 60.3751C103.429 60.1258 103.485 59.7698 103.551 59.5839C103.618 59.3986 99.2283 59.2337 93.7961 59.2181C84.7037 59.1922 83.9189 59.2576 83.9189 60.0434C83.9189 60.5687 84.2901 60.897 84.8832 60.897C85.4134 60.897 86.1977 61.4311 86.6255 62.0842C87.324 63.15 87.3298 63.5363 86.6865 65.8643C85.5607 69.9342 81.7786 79.4427 81.4401 79.0525C81.2728 78.8588 79.9841 74.9767 78.5764 70.4254L76.0181 62.1505L77.3478 61.0901C79.4695 59.3981 78.5345 58.9459 72.9155 58.9459C68.2573 58.9459 67.8227 59.024 67.8227 59.8624C67.8227 60.4165 68.3895 61.0135 69.2572 61.373C70.3923 61.8427 70.8908 62.5559 71.6448 64.7888L72.5979 67.611L71.4887 70.2293C69.4099 75.1362 67.593 78.9442 67.3301 78.9442C66.9813 78.9442 61.9696 63.7782 61.9696 62.7212C61.9696 62.2666 62.5183 61.5355 63.189 61.096C64.4962 60.2395 64.7927 59.16 63.7987 58.8762C63.4636 58.7806 61.0492 58.765 58.4333 58.8415ZM146.109 59.0537C145.572 59.3722 143.816 60.1122 142.207 60.6985C138.973 61.8759 138.375 63.0046 140.859 63.2441C143.593 63.508 143.914 64.543 143.911 73.0779C143.908 81.5679 143.483 83.8403 141.679 85.0222C139.396 86.5182 140.473 86.9113 147.112 87.005C150.584 87.0537 153.58 87.0089 153.769 86.9054C154.511 86.5006 153.502 85.2851 152.425 85.2851C151.797 85.2851 150.725 84.7915 150.042 84.1876C148.807 83.0975 148.799 83.035 148.754 74.965C148.726 69.8703 148.911 66.4633 149.249 65.8307C150.336 63.7997 153.074 63.2178 155.046 64.5986C156.37 65.5254 157.24 65.2698 158.308 63.6401C159.042 62.5198 159.041 62.3364 158.296 61.1999C157.288 59.661 154.727 58.7513 153.129 59.3649C152.487 59.6112 151.251 60.4955 150.381 61.3306C149.512 62.1652 148.715 62.848 148.611 62.848C148.507 62.848 148.451 61.9208 148.485 60.7877C148.553 58.5294 147.853 58.0182 146.109 59.0537ZM38.5477 59.8722C34.0115 62.3364 31.9307 66.9647 35.7953 65.9946C36.6196 65.7878 37.4737 64.9517 38.1902 63.6509C39.4964 61.2779 41.7562 60.4229 44.7291 61.177C47.3689 61.8457 48.4878 63.6699 48.7141 67.6705L48.9019 70.999L44.5028 71.2497C37.0493 71.6746 33.1896 74.3997 33.1935 79.2339C33.1989 86.2445 41.6006 89.6355 47.6098 85.052L49.1204 83.8999L50.434 85.2914C51.8997 86.8445 53.146 87.184 55.5453 86.684C57.5119 86.2743 57.7856 86.0367 57.4114 85.0622C57.2383 84.611 56.5257 84.3096 55.6321 84.3096C53.4596 84.3096 53.1899 83.0804 53.1889 73.1813C53.1884 63.6816 52.8377 62.2047 50.1062 60.2C48.1113 58.7357 41.0109 58.5343 38.5477 59.8722ZM123.379 59.9171C121.122 61.1101 118.673 63.9099 117.425 66.7253C116.207 69.4723 115.771 75.2606 116.569 78.0887C119.104 87.0742 129.648 90.0515 136.762 83.7896C140.249 80.7206 139.765 79.2661 136.069 81.7113C133.786 83.2224 129.828 83.7511 127.227 82.8931C123.912 81.7991 121.191 77.4941 120.877 72.8472L120.745 70.8961L129.512 70.7625C134.334 70.6888 138.471 70.4366 138.706 70.2015C139.417 69.4904 137.72 64.6923 136.039 62.6632C135.177 61.6223 133.578 60.3653 132.486 59.8693C129.865 58.6786 125.68 58.7011 123.379 59.9171ZM164.595 60.3341C159.657 62.648 158.596 68.7929 162.61 71.8341C163.46 72.4779 166.241 73.8978 168.79 74.9894C173.641 77.0673 175.13 78.2896 175.13 80.1948C175.13 85.349 167.586 87.1752 163.759 82.9468C163.274 82.4107 162.496 80.9069 162.03 79.6046C160.692 75.8649 159.794 76.4566 159.626 81.1889L159.485 85.1407L162.796 86.2831C171.567 89.3082 179.033 85.706 179.033 78.4476C179.033 74.4007 177.207 72.574 170.671 70.0811C164.393 67.6866 162.524 65.1668 165.109 62.5822C167.62 60.0712 173.05 61.4077 175.21 65.0678C175.769 66.0155 176.474 66.7096 176.776 66.6106C177.078 66.5111 177.39 65.3376 177.469 64.003C177.683 60.3999 176.769 59.7634 171.079 59.559C167.44 59.4278 166.218 59.5742 164.595 60.3341ZM123.784 62.3554C122.234 63.5787 120.989 65.7497 120.989 67.2286C120.989 68.2085 121.193 68.2388 126.964 68.1066L132.939 67.9695L133.091 66.6535C133.2 65.7073 132.781 64.8337 131.597 63.5426C130.228 62.0476 129.549 61.7086 127.543 61.5179C125.583 61.3316 124.884 61.4872 123.784 62.3554ZM41.3923 74.35C37.163 75.6518 35.7792 79.409 38.435 82.381C41.0621 85.3207 45.9373 84.5408 47.9088 80.865C48.4766 79.8061 48.8 78.1833 48.8 76.3912V73.5788L46.2392 73.6129C44.8311 73.6315 42.6498 73.9632 41.3923 74.35Z" fill="#EAE4D1"/>
</svg>
